<svg id="Layer_1" height="512" viewBox="0 0 128 128" width="512" xmlns="http://www.w3.org/2000/svg" data-name="Layer 1"><path d="m39 68.15s-17.5.4-19.167 7.115 18.578 6.052 13.622 11.385 2 7.458 14.67 6.125 14.243 5.65 25.375 6.665c17.833 1.625 46.25-5.463 26.166-10.867-24.386-6.561-43.044-25.482-60.666-20.423z" fill="#cef4ff"/><path d="m10.25 28.324a46.942 46.942 0 0 0 93.883 0z" fill="#93d300"/><path d="m18.241 28.324a38.95 38.95 0 0 0 77.9 0z" fill="#db1063"/><path d="m84.557 47.035-33.192 33.193a46.942 46.942 0 0 0 66.385 0z" fill="#b2e034"/><path d="m84.557 47.035-27.542 27.542a38.95 38.95 0 0 0 55.084 0z" fill="#ff3245"/><g fill="#242c43"><path d="m46.875 30.074h.375a1.75 1.75 0 0 0 0-3.5h-.375a1.75 1.75 0 0 0 0 3.5z"/><path d="m31.706 35.85v2.316a1.75 1.75 0 1 0 3.5 0v-2.316a1.75 1.75 0 0 0 -3.5 0z"/><path d="m47.495 44.521a1.75 1.75 0 0 0 -1.75 1.75v1.529a1.75 1.75 0 0 0 3.5 0v-1.529a1.75 1.75 0 0 0 -1.75-1.75z"/><path d="m75.73 47.8v-4.279a1.75 1.75 0 0 0 -3.5 0v4.279a1.75 1.75 0 1 0 3.5 0z"/><path d="m63.284 38.745v-1.737a1.75 1.75 0 0 0 -3.5 0v1.737a1.75 1.75 0 0 0 3.5 0z"/><path d="m58.941 59.3v-3.332a1.75 1.75 0 0 0 -3.5 0v3.332a1.75 1.75 0 0 0 3.5 0z"/><path d="m87.02 36.429v-1.737a1.75 1.75 0 0 0 -3.5 0v1.736a1.75 1.75 0 0 0 3.5 0z"/><path d="m119.5 80.228a1.75 1.75 0 0 0 -.513-1.237l-5.65-5.65-16.606-16.607a48.2 48.2 0 0 0 9.152-28.41 1.75 1.75 0 0 0 -1.75-1.75h-50.852a1.75 1.75 0 0 0 0 3.5h41.064a36.786 36.786 0 0 1 -3.494 14.111 1.75 1.75 0 1 0 3.165 1.494 40.262 40.262 0 0 0 3.829-15.605h4.506a44.674 44.674 0 0 1 -8.127 24.153l-8.43-8.427a1.8 1.8 0 0 0 -2.475 0l-19.042 19.041a37.184 37.184 0 0 1 -44.241-34.767h20.464a1.75 1.75 0 0 0 0-3.5h-30.25a1.75 1.75 0 0 0 -1.75 1.75 48.821 48.821 0 0 0 20.084 39.391c-6.113 1.421-9.625 3.81-10.449 7.128-1.239 4.994 4.892 6.935 9.369 8.351 1.606.508 4.22 1.335 4.912 1.967a2.5 2.5 0 0 1 -.242.3c-1.916 2.062-2.515 3.984-1.779 5.715 1.02 2.4 4.355 3.622 10.2 3.731h.033a1.75 1.75 0 0 0 .032-3.5c-5.261-.1-6.867-1.188-7.042-1.6-.062-.145.021-.779 1.122-1.964a3.664 3.664 0 0 0 1.151-3.519c-.62-2.344-3.73-3.324-7.331-4.467-4.09-1.294-7.442-2.5-7.027-4.171.572-2.3 4.785-4.235 11.3-5.208a48.215 48.215 0 0 0 14.776 5.594 1.725 1.725 0 0 0 .344.034 1.75 1.75 0 0 0 .34-3.466 45.292 45.292 0 0 1 -36.259-42.566h4.5a40.745 40.745 0 0 0 40.656 38.95c1.01 0 2.02-.05 3.026-.125l-10.089 10.091a1.749 1.749 0 0 0 0 2.475 48.762 48.762 0 0 0 53.493 10.394 3.8 3.8 0 0 1 1.151.824c-1.392 2.427-17.311 6.273-31.113 5.014a24.828 24.828 0 0 1 -10.2-3.368c-3.869-2.016-7.873-4.1-15.521-3.293a1.75 1.75 0 1 0 .366 3.48c6.6-.694 9.818.978 13.538 2.917a28.476 28.476 0 0 0 11.5 3.75c1.7.155 3.571.23 5.528.23 12.257 0 28.038-2.97 29.339-7.944a3.32 3.32 0 0 0 -1.016-3.3 48.834 48.834 0 0 0 11.794-8.7 1.75 1.75 0 0 0 .514-1.241zm-16.422 8.054a1.773 1.773 0 0 0 -.188.083 45.283 45.283 0 0 1 -49.027-8.165l3.179-3.179a40.273 40.273 0 0 0 22.211 10.37 1.828 1.828 0 0 0 .229.015 1.75 1.75 0 0 0 .225-3.485 36.806 36.806 0 0 1 -20.187-9.375l6.847-6.846.024-.024 18.166-18.166 25.025 25.025a37.068 37.068 0 0 1 -16.41 8.7 1.75 1.75 0 0 0 .807 3.406 40.573 40.573 0 0 0 18.078-9.627l3.2 3.2a45.073 45.073 0 0 1 -12.179 8.067z"/><path d="m86.95 84.158c-.24.016-.481.028-.721.04a1.75 1.75 0 0 0 .081 3.5h.083q.387-.018.775-.043a1.75 1.75 0 0 0 -.219-3.493z"/><path d="m75.6 69.841a1.75 1.75 0 0 0 -1.75 1.75v1.737a1.75 1.75 0 0 0 3.5 0v-1.737a1.75 1.75 0 0 0 -1.75-1.75z"/><path d="m86.311 67.166a1.75 1.75 0 0 0 1.75-1.75v-3.329a1.75 1.75 0 1 0 -3.5 0v3.329a1.75 1.75 0 0 0 1.75 1.75z"/><path d="m94.223 77.3a1.75 1.75 0 0 0 1.75-1.75v-1.739a1.75 1.75 0 0 0 -3.5 0v1.736a1.75 1.75 0 0 0 1.75 1.753z"/></g></svg>